<svg xmlns="http://www.w3.org/2000/svg" width="320" height="64" viewBox="0 0 320 64" role="img" aria-label="Get Release">
  <defs>
    <linearGradient id="bg" x1="0%" y1="0%" x2="100%" y2="100%">
      <stop offset="0%" style="stop-color:#d90429"/>
      <stop offset="100%" style="stop-color:#a30320"/>
    </linearGradient>
  </defs>
  <rect width="320" height="64" rx="8" fill="url(#bg)"/>
  <path fill="#ffffff" d="M32 20c-6.6 0-12 5.4-12 12 0 5.3 3.4 9.8 8.2 11.4.6.1.8-.3.8-.6 0-.3 0-1.1 0-2.2-3.3.7-4-1.6-4-1.6-.5-1.4-1.3-1.8-1.3-1.8-1.1-.8.1-.8.1-.8 1.2.1 1.8 1.2 1.8 1.2 1.1 1.8 2.8 1.3 3.5 1 .1-.8.4-1.3.8-1.6-2.7-.3-5.5-1.4-5.5-6.1 0-1.3.5-2.4 1.2-3.3-.1-.3-.5-1.5.1-3.1 0 0 1-.3 3.3 1.2a11.5 11.5 0 0 1 6 0c2.3-1.5 3.3-1.2 3.3-1.2.6 1.6.2 2.8.1 3.1.8.9 1.2 2 1.2 3.3 0 4.7-2.8 5.8-5.5 6.1.4.4.8 1.1.8 2.2 0 1.6 0 2.9 0 3.3 0 .3.2.7.8.6A12 12 0 0 0 44 32c0-6.6-5.4-12-12-12z"/>
  <text x="72" y="40" fill="#ffffff" font-family="Segoe UI, Helvetica, Arial, sans-serif" font-size="22" font-weight="700">GET RELEASE</text>
</svg>
